<svg xmlns="http://www.w3.org/2000/svg" width="80" height="80" fill="none" viewBox="0 0 80 80">
  <path fill="#000" d="M40.869 15.825a1.25 1.25 0 0 0-1.728 0l-28.766 27.48a1.25 1.25 0 0 0-.386.904L9.984 70a5 5 0 0 0 5 5H30a2.5 2.5 0 0 0 2.5-2.5V51.25A1.25 1.25 0 0 1 33.75 50h12.5a1.25 1.25 0 0 1 1.25 1.25V72.5A2.5 2.5 0 0 0 50 75h15.01a5 5 0 0 0 5-5V44.21a1.249 1.249 0 0 0-.387-.905L40.87 15.824Z"/>
  <path fill="#000" d="m76.705 38.148-11.688-11.18V10a2.5 2.5 0 0 0-2.5-2.5h-7.5a2.5 2.5 0 0 0-2.5 2.5v5l-9.05-8.653C42.62 5.49 41.361 5 40 5c-1.356 0-2.612.49-3.46 1.348L3.307 38.145c-.972.938-1.094 2.48-.21 3.496a2.499 2.499 0 0 0 3.623.165l32.42-30.981a1.25 1.25 0 0 1 1.728 0l32.425 30.981a2.5 2.5 0 0 0 3.53-.069c.959-.993.88-2.634-.12-3.589Z"/>
</svg>
