<svg xmlns="http://www.w3.org/2000/svg" width="40" height="24" fill="none" viewBox="0 0 40 24">
  <g clip-path="url(#a)">
    <g clip-path="url(#b)">
      <g clip-path="url(#c)">
        <mask id="d" width="24" height="24" x="16" y="0" maskUnits="userSpaceOnUse" style="mask-type:luminance">
          <path fill="#fff" d="M40 0H16v24h24V0Z"/>
        </mask>
        <g mask="url(#d)">
          <path fill="#A3A3A3" fill-rule="evenodd" d="M18.143 10.286a8.143 8.143 0 1 1 16.285 0 8.143 8.143 0 0 1-16.285 0ZM26.286 0C20.606 0 16 4.605 16 10.286c0 5.68 4.605 10.285 10.286 10.285 2.065 0 3.988-.608 5.599-1.656l4.457 4.458a2.143 2.143 0 0 0 3.03-3.03l-4.457-4.458a10.237 10.237 0 0 0 1.656-5.6C36.571 4.606 31.966 0 26.286 0Z" clip-rule="evenodd"/>
        </g>
      </g>
    </g>
  </g>
  <defs>
    <clipPath id="a">
      <path fill="#fff" d="M16 0h24v24H16z"/>
    </clipPath>
    <clipPath id="b">
      <path fill="#fff" d="M16 0h24v24H16z"/>
    </clipPath>
    <clipPath id="c">
      <path fill="#fff" d="M16 0h24v24H16z"/>
    </clipPath>
  </defs>
</svg>
